<?xml version="1.0" encoding="UTF-8"?>
<!DOCTYPE svg PUBLIC "-//W3C//DTD SVG 1.1//EN" "http://www.w3.org/Graphics/SVG/1.1/DTD/svg11.dtd">
<!-- Creator: CorelDRAW 2019 (64-Bit) -->
<svg xmlns="http://www.w3.org/2000/svg" xml:space="preserve" width="104.054mm" height="19.9222mm" version="1.1" style="shape-rendering:geometricPrecision; text-rendering:geometricPrecision; image-rendering:optimizeQuality; fill-rule:evenodd; clip-rule:evenodd"
viewBox="0 0 6642.65 1271.8"
 xmlns:xlink="http://www.w3.org/1999/xlink">
 <defs>
  <style type="text/css">
   <![CDATA[
    .fil0 {fill:white}
    .fil1 {fill:#F7DD7C;fill-rule:nonzero}
   ]]>
  </style>
 </defs>
 <g id="Слой_x0020_1">
  <metadata id="CorelCorpID_0Corel-Layer"/>
  <g id="_1129612096">
   <path class="fil0" d="M1236.32 277.42l250.78 0c-48.63,17.49 -91.72,45.26 -129.27,83.3 -69.49,70.43 -104.25,157.99 -104.25,262.7 0,105.63 35.45,192.97 106.34,262 41.92,40.82 92.02,69.57 150.29,86.25l-315.6 0 -0.49 1.3 -250.19 0 -259.92 -694.97 255.75 0 129.27 398.91 129.26 -398.91 37.96 0 0.06 -0.57zm519.49 0l315.64 0 0 0.57 42.8 0 0 69.49c41.7,-59.3 106.1,-88.95 193.2,-88.95 75.05,0 136.45,25.71 184.17,77.14 47.72,51.43 71.58,125.33 71.58,221.69l0 415.6 -230.73 0 0 -386.4c0,-36.14 -9.5,-63.47 -28.49,-82.01 -19,-18.53 -44.25,-27.8 -75.76,-27.8 -36.13,0 -64.16,10.89 -84.09,32.67 -19.92,21.78 -29.88,53.05 -29.88,93.82l0 369.73 -230.73 0 0 -1.3 -109.83 0c68.46,-19.99 124.45,-57.31 167.93,-111.97l-166.8 -116.75c-34.28,32.44 -76.45,48.65 -126.48,48.65 -80.62,0 -132.51,-28.26 -155.67,-84.79l479.53 0c6.49,-26.87 9.73,-55.6 9.73,-86.18 0,-104.71 -33.82,-191.81 -101.46,-261.31 -36.34,-37.33 -77.89,-64.63 -124.65,-81.9zm-265.93 269.55l266.87 0c-18.53,-64.87 -62.08,-97.3 -130.65,-97.3 -71.35,0 -116.76,32.43 -136.22,97.3zm-1241.09 192.49l376.68 0 0 233.51 -625.48 0 0 -972.96 618.53 0 0 232.12 -369.73 0 0 134.83 334.98 0 0 229.34 -334.98 0 0 143.16zm4315.92 -461.46l227.95 0 0 667.17c0,55.6 -10.42,104.94 -31.27,148.03 -20.85,43.09 -48.88,77.38 -84.09,102.86 -35.21,25.48 -73.9,44.48 -116.06,56.99 -42.16,12.51 -86.87,18.77 -134.13,18.77 -76.91,0 -145.48,-14.36 -205.71,-43.09 -60.23,-28.73 -105.64,-70.89 -136.22,-126.48l191.82 -111.2c33.36,52.82 82.47,79.23 147.33,79.23 41.7,0 75.52,-10.65 101.46,-31.97 25.94,-21.31 38.92,-52.35 38.92,-93.13l0 -66.72c-47.26,57.45 -112.13,86.18 -194.59,86.18 -95.45,0 -174.44,-34.29 -236.99,-102.86 -62.55,-68.57 -93.82,-151.97 -93.82,-250.19 0,-98.22 31.27,-181.62 93.82,-250.19 62.55,-68.58 141.54,-102.86 236.99,-102.86 82.47,0 147.33,28.73 194.59,86.18l0 -66.72zm-253.67 437.13c27.34,27.34 62.78,41 106.33,41 43.56,0 79,-13.67 106.34,-41 27.34,-27.34 41,-61.85 41,-103.55 0,-41.7 -13.67,-76.22 -41,-103.55 -27.34,-27.34 -62.78,-41 -106.34,-41 -43.55,0 -78.99,13.67 -106.33,41 -27.34,27.34 -41,61.85 -41,103.55 0,41.7 13.67,76.21 41,103.55zm-606.71 -437.13l230.73 0 0 694.97 -230.73 0 0 -63.93c-47.26,55.6 -113.05,83.39 -197.37,83.39 -92.67,0 -170.27,-34.98 -232.82,-104.94 -62.55,-69.96 -93.82,-157.3 -93.82,-262.01 0,-104.71 31.27,-192.05 93.82,-262.01 62.55,-69.96 140.15,-104.94 232.82,-104.94 84.32,0 150.11,27.8 197.37,83.39l0 -63.93zm-251.58 457.29c26.88,27.8 62.08,41.69 105.63,41.69 43.56,0 78.76,-13.9 105.64,-41.69 26.87,-27.8 40.31,-64.41 40.31,-109.81 0,-45.4 -13.44,-82.01 -40.31,-109.81 -26.88,-27.8 -62.08,-41.69 -105.64,-41.69 -43.55,0 -78.76,13.9 -105.63,41.69 -26.87,27.8 -40.31,64.41 -40.31,109.81 0,45.4 13.44,82.01 40.31,109.81zm-333.58 -236.29l-144.56 0 0 201.54c0,30.58 11.12,49.58 33.36,56.99 22.24,7.41 59.31,9.73 111.2,6.95l0 208.49c-138.07,16.68 -235.14,3.94 -291.19,-38.23 -56.06,-42.16 -84.09,-118.38 -84.09,-228.64l0 -207.1 -104.25 0 0 -221 104.25 0 0 -125.1 230.73 -69.49 0 194.59 144.56 0 0 221z"/>
   <path class="fil1" d="M5141.51 959.07c-20.39,20.38 -44.94,30.58 -73.67,30.58 -28.73,0 -53.28,-10.2 -73.66,-30.58 -20.39,-20.39 -30.58,-44.94 -30.58,-73.67 0,-28.73 9.96,-53.28 29.88,-73.66 19.92,-20.39 44.71,-30.58 74.36,-30.58 28.73,0 53.28,10.19 73.67,30.58 20.38,20.38 30.58,44.94 30.58,73.66 0,28.73 -10.2,53.28 -30.58,73.67zm658.83 -681.07l150.12 0 0 694.97 -150.12 0 0 -88.96c-45.4,71.35 -117.22,107.03 -215.44,107.03 -79.69,0 -144.09,-25.48 -193.2,-76.45 -49.11,-50.96 -73.66,-120.92 -73.66,-209.88l0 -426.71 150.11 0 0 411.42c0,51.89 13.9,91.74 41.7,119.54 27.8,27.8 65.79,41.7 113.98,41.7 52.81,0 95.44,-16.45 127.87,-49.34 32.43,-32.9 48.64,-83.17 48.64,-150.81l0 -372.5zm504.55 553.2l337.76 0 0 141.77 -542.08 0 0 -100.07 325.24 -453.13 -311.35 0 0 -141.77 514.28 0 0 100.07 -323.85 453.13z"/>
  </g>
 </g>
</svg>
