<?xml version="1.0" encoding="UTF-8"?>
<!DOCTYPE svg PUBLIC "-//W3C//DTD SVG 1.1//EN" "http://www.w3.org/Graphics/SVG/1.1/DTD/svg11.dtd">
<!-- Creator: CorelDRAW 2019 (64-Bit) -->
<svg xmlns="http://www.w3.org/2000/svg" xml:space="preserve" width="172.727mm" height="27.0326mm" version="1.1" style="shape-rendering:geometricPrecision; text-rendering:geometricPrecision; image-rendering:optimizeQuality; fill-rule:evenodd; clip-rule:evenodd"
viewBox="0 0 4691.35 734.22"
 xmlns:xlink="http://www.w3.org/1999/xlink">
 <defs>
  <style type="text/css">
   <![CDATA[
    .fil0 {fill:#FEFEFE;fill-rule:nonzero}
   ]]>
  </style>
 </defs>
 <g id="Слой_x0020_1">
  <metadata id="CorelCorpID_0Corel-Layer"/>
  <g id="_1078100512">
   <path class="fil0" d="M1028.29 226.08m181.52 -150.36l42.45 97.76 66.15 -152.39c-0.68,-6.1 -4.06,-11.29 -10.16,-15.8 -3.39,-2.26 -6.32,-4.07 -9.26,-4.97l65.25 0c-2.26,0.45 -4.97,1.81 -7.68,3.84 -5.42,3.61 -8.58,9.03 -9.71,15.8l-93.7 206.13 0 -2.03 -0.9 2.03 -55.99 -121.01 -55.99 121.01 -0.9 -2.03 0 2.03 -93.92 -206.13c-1.13,-6.77 -4.29,-12.19 -9.71,-15.8 -2.71,-2.03 -5.19,-3.39 -7.45,-3.84l65.24 0c-3.16,0.9 -6.09,2.71 -9.25,4.97 -6.32,4.51 -9.71,9.94 -10.16,15.8l66.15 152.39 42.44 -97.76 13.55 -33.87 13.54 33.87zm155.33 150.36m45.61 -205l0 184.23c0,2.94 0.9,5.87 2.71,8.35 1.81,2.71 4.06,5.19 7.22,7.45 3.16,2.26 6.32,4.07 9.26,4.97l-64.8 0c2.94,-1.13 6.09,-2.71 9.26,-4.97 3.16,-2.26 5.65,-4.74 7.22,-7.45 1.81,-2.49 2.71,-5.42 2.71,-8.35l0 -184.23c0,-2.94 -0.9,-5.87 -2.71,-8.58 -1.58,-2.48 -4.06,-4.96 -7.22,-7.22 -3.16,-2.26 -6.32,-4.07 -9.26,-4.97l64.8 0c-2.94,0.9 -6.09,2.71 -9.26,4.97 -3.16,2.26 -5.42,4.74 -7.22,7.22 -1.81,2.71 -2.71,5.65 -2.71,8.58zm20.32 205m164.36 -225.77l64.8 0c-2.93,0.9 -6.09,2.71 -9.03,4.97 -3.16,2.26 -5.64,4.74 -7.45,7.22 -1.81,2.71 -2.71,5.65 -2.71,8.58l0 205 0 -0.23 0 0.23 -164.36 -170.23 0 149.46c0,2.94 0.9,5.87 2.71,8.35 1.81,2.71 4.06,5.19 7.22,7.45 3.16,2.26 6.32,3.84 9.26,4.97l-64.8 0c2.94,-1.13 6.1,-2.71 9.26,-4.97 3.16,-2.26 5.65,-4.74 7.23,-7.45 1.81,-2.49 2.71,-5.42 2.71,-8.35l0 -205 164.36 172.49 0 -151.72c0,-2.94 -0.9,-5.87 -2.71,-8.58 -1.58,-2.48 -4.06,-4.96 -7.22,-7.22 -3.16,-2.26 -6.09,-4.07 -9.26,-4.97zm65.7 225.77m167.97 -221.93l8.35 -3.84 -8.35 41.32c-0.45,-4.07 -1.58,-8.13 -3.84,-12.42 -4.06,-8.13 -10.84,-12.19 -19.87,-12.19l-42.67 0 0 2.48 -0.23 116.95 0 68.86c0,2.94 0.9,5.87 2.71,8.35 1.81,2.71 4.29,5.19 7.45,7.45 2.94,2.26 6.1,3.84 9.03,4.97l-64.79 0c2.93,-0.9 5.87,-2.71 9.25,-4.97 6.1,-4.51 9.26,-9.71 9.94,-15.8l0 -68.86 -0.23 -116.95 0 -2.48 -42.67 0c-9.03,0 -15.8,4.06 -20.09,12.19 -0.9,2.03 -1.81,4.06 -2.26,6.09 -0.68,2.03 -1.13,4.06 -1.13,6.32l-8.58 -41.32 8.58 3.84 159.4 0zm9.48 221.93m0 -221.93l115.59 0 8.58 -3.84 -8.58 41.32c-0.23,-4.07 -1.58,-8.13 -3.61,-12.42 -4.06,-8.13 -10.84,-12.19 -19.87,-12.19l-42.9 0 0 84.44 47.19 0c4.52,0 8.81,-0.68 12.42,-2.03 3.84,-1.36 7,-3.16 9.93,-5.64l-5.42 44.25c0,-3.84 -1.35,-7.9 -3.84,-11.97 -4.74,-7.9 -12.87,-11.96 -24.16,-11.96l-36.12 0 0 83.76c2.48,3.16 5.87,6.32 10.39,9.48 9.03,6.32 18.74,9.48 29.12,9.48 10.61,0 20.32,-4.97 29.58,-14.9 4.51,-4.97 8.13,-9.94 10.39,-14.67l-4.52 38.83 -120.33 0c2.93,-1.13 6.09,-2.94 9.48,-5.19 6.55,-4.96 9.71,-10.61 9.71,-17.16 0,-10.38 0,-71.79 -0.23,-184.23 -3.38,-6.77 -11.06,-11.97 -22.8,-15.35zm130.04 221.93m45.15 -112.21l37.7 0c2.48,0 5.19,-0.45 7.68,-1.36 2.48,-1.13 5.19,-2.71 7.68,-4.51 10.16,-7.45 15.35,-20.1 15.35,-37.93 0,-19.42 -5.19,-34.77 -15.8,-46.06 -8.58,-9.03 -18.06,-13.55 -28.67,-13.55 -10.61,0 -16.71,0.45 -18.06,0.9 -3.38,1.58 -4.96,6.32 -4.96,14.22 0,5.87 0,16.03 -0.23,30.7 -0.23,14.9 -0.45,34.09 -0.68,57.57zm60.51 7.68c3.84,3.39 7.9,7.9 12.19,13.1 4.29,5.42 9.03,11.51 14,18.96 12.42,18.51 23.71,32.74 33.42,42.22 17.16,16.71 32.96,23.48 47.18,20.55 -0.68,1.58 -2.71,3.16 -5.87,4.74 -6.32,3.39 -15.8,4.97 -28.45,4.97 -12.64,0 -27.99,-10.84 -46.06,-32.51 -4.51,-5.64 -8.81,-11.06 -12.64,-16.26 -3.84,-5.42 -7.45,-10.84 -10.61,-16.48 -1.35,-2.48 -3.38,-5.19 -5.87,-7.68 -2.26,-2.71 -5.19,-5.19 -8.58,-7.9 -13.54,-10.38 -29.8,-15.58 -49.22,-15.58l0 75.63c0,3.16 0.9,5.87 2.71,8.58 1.81,2.71 4.06,4.96 7.22,7.22 3.16,2.49 6.09,4.07 9.03,4.97l-64.12 0c2.94,-0.9 5.87,-2.48 9.03,-4.97 3.16,-2.26 5.64,-4.51 7.22,-7.22 1.81,-2.71 2.71,-5.42 2.71,-8.58l0 -182.87c0,-3.16 -0.9,-5.87 -2.71,-8.58 -1.58,-2.49 -4.07,-4.97 -7.22,-7.23 -3.16,-2.26 -6.09,-3.84 -9.03,-4.96l45.15 0c15.8,-2.49 31.61,-2.26 47.41,1.13 31.61,6.55 47.41,24.16 47.41,53.28 0.45,5.19 -0.45,11.96 -3.16,20.09 -5.19,16.26 -15.58,31.38 -31.16,45.38zm170.46 104.53m45.61 -205l0 184.23c0,2.94 0.9,5.87 2.71,8.35 1.81,2.71 4.06,5.19 7.22,7.45 3.16,2.26 6.32,4.07 9.26,4.97l-64.8 0c2.94,-1.13 6.09,-2.71 9.26,-4.97 3.16,-2.26 5.65,-4.74 7.22,-7.45 1.81,-2.49 2.71,-5.42 2.71,-8.35l0 -184.23c0,-2.94 -0.9,-5.87 -2.71,-8.58 -1.58,-2.48 -4.06,-4.96 -7.22,-7.22 -3.16,-2.26 -6.32,-4.07 -9.26,-4.97l64.8 0c-2.94,0.9 -6.1,2.71 -9.26,4.97 -3.16,2.26 -5.42,4.74 -7.22,7.22 -1.81,2.71 -2.71,5.65 -2.71,8.58zm21 205m1.35 -16.26c-1.35,-10.84 -0.23,-24.16 3.39,-39.96 0,14.67 5.42,25.51 15.8,33.19 8.13,5.64 17.38,8.58 27.54,8.58 9.48,0 18.74,-3.16 28,-9.48 10.84,-7 16.26,-15.8 16.26,-26.19 0,-10.16 -4.29,-20.77 -13.09,-31.61 -2.71,-3.61 -6.77,-7.9 -11.97,-13.09 -5.19,-5.2 -11.74,-11.07 -19.64,-18.06 -7.45,-6.77 -13.77,-12.64 -18.96,-17.84 -5.19,-5.19 -9.03,-9.71 -11.97,-13.32 -8.35,-11.06 -12.42,-22.12 -12.42,-33.19 0,-13.1 5.19,-24.38 15.8,-33.64 11.29,-9.94 25.96,-14.9 44.25,-14.9 15.58,0 27.32,1.36 35.45,4.29 4.06,1.36 6.55,2.94 7.22,4.29l-6.77 39.06c0,-7.9 -2.71,-15.35 -8.13,-22.8 -6.77,-9.48 -15.8,-14 -27.09,-14 -12.42,0 -21.67,2.49 -28.22,7.45 -6.32,4.97 -9.48,11.74 -9.48,20.77 0,14.68 12.87,32.51 38.61,53.73 15.58,12.87 26.19,22.35 31.38,28.45 11.07,12.87 16.71,25.96 16.71,39.28 0,21 -9.48,37.7 -28.45,50.34 -15.13,9.94 -31.16,14.9 -47.86,14.9 -10.83,0 -19.87,-2.71 -27.77,-8.13 -4.06,-2.71 -7,-5.42 -8.58,-8.13zm177.68 16.26m191.9 -51.25l5.87 33.64c-3.39,2.94 -9.26,5.87 -16.93,8.81 -15.58,5.87 -33.64,8.81 -54.18,8.81 -1.13,0 -2.49,0 -3.62,0 -1.13,0 -2.48,0 -3.61,-0.23 -35.45,-1.13 -63.44,-10.84 -83.99,-28.67 -11.74,-10.16 -20.54,-22.8 -26.19,-37.48 -5.64,-14.67 -8.8,-31.61 -9.03,-51.02 -0.23,-9.03 0.68,-18.29 2.71,-27.09 2.03,-9.03 5.42,-18.06 10.16,-27.09 4.74,-9.03 10.61,-16.93 17.38,-23.93 6.77,-7 14.68,-12.64 23.48,-17.39 8.8,-4.52 18.74,-8.13 29.58,-10.16 10.84,-2.26 22.8,-3.16 35.9,-2.71 21,0.68 37.93,2.03 51.02,4.06 13.1,2.03 22.12,3.84 27.32,5.42l-7.45 49.9c-1.58,-8.13 -5.64,-16.48 -11.97,-24.61 -13.09,-16.48 -31.83,-24.84 -56.44,-24.84 -29.8,0 -53.51,8.81 -70.89,26.19 -17.39,17.39 -26.19,41.77 -26.19,72.7 0,29.35 11.97,54.41 35.9,75.18 11.29,9.48 22.8,16.71 34.99,21.45 12.19,4.74 25.06,7 38.38,7 2.71,0 5.64,-0.45 8.81,-1.58 3.16,-0.9 6.77,-2.26 10.38,-4.06 15.13,-6.77 27.77,-17.38 38.61,-32.29zm7 51.25m132.98 -209.97l0 196.87c17.16,-3.62 30.93,-11.29 41.76,-23.25 15.13,-16.71 22.8,-40.87 22.8,-72.02 0,-31.38 -7.68,-56.22 -22.8,-74.5 -11.06,-12.87 -24.84,-21.9 -41.76,-27.09zm-82.18 25.29c-15.13,17.61 -22.58,41.54 -22.58,71.79 0,30.25 7.45,54.41 22.58,72.02 10.61,12.42 24.38,21.22 41.31,25.96l0 -195.51c-16.93,4.74 -30.7,13.32 -41.31,25.74zm66.6 -28.67l0 202.29c2.71,-0.23 5.64,-0.45 8.8,-0.68l0 -200.26c-1.35,-0.23 -2.93,-0.68 -4.29,-0.9 -1.58,-0.23 -2.94,-0.45 -4.51,-0.45zm-11.06 201.61l0 -201.61c-1.13,0.23 -2.49,0.23 -3.61,0.45 -1.36,0.23 -2.49,0.45 -3.84,0.68l0 199.13c2.49,0.68 4.97,1.13 7.45,1.36zm-47.86 -201.84c9.71,-4.74 19.42,-7.9 28.9,-9.71 9.71,-1.81 19.42,-2.71 29.12,-2.48 13.1,0.45 25.74,3.16 37.7,8.35 12.19,4.97 23.71,12.87 34.77,23.71 24.61,23.48 36.8,51.93 36.8,85.34 0,32.74 -12.64,59.83 -37.7,80.83 -21.9,18.29 -45.83,27.54 -71.57,27.54 -27.99,0 -52.83,-7.9 -74.96,-23.93 -27.77,-20.1 -41.54,-48.54 -41.54,-85.12 0,-51.48 19.42,-86.25 58.47,-104.54zm168.65 213.58m135.92 -4.51l-0.23 0.23 0 -0.23 0 0 -0.9 -0.68 -74.28 -139.98 -15.58 114.69 0 7.22c0.45,6.09 3.84,11.29 9.93,15.8 2.93,2.26 6.09,3.84 9.03,4.97l-63.89 0c1.36,-0.68 2.94,-1.36 4.29,-2.03 1.58,-0.9 3.16,-1.81 4.74,-2.94 2.94,-2.26 5.42,-4.74 7,-7.45 1.58,-2.48 2.48,-5.19 2.93,-8.35l25.74 -202.52 90.99 183.55 93.47 -180.85 33.64 202.52c0.45,5.87 3.84,11.07 9.94,15.58 3.16,2.49 6.32,4.07 9.03,4.97l-63.89 0c2.71,-0.9 5.87,-2.48 9.03,-4.97 3.16,-2.26 5.42,-4.51 7.22,-7.22 1.81,-2.49 2.71,-5.42 2.71,-8.36l0 -7.45 -25.96 -111.98 -74.95 135.47zm146.98 4.51m45.61 -205l0 184.23c0,2.94 0.9,5.87 2.71,8.35 1.81,2.71 4.06,5.19 7.22,7.45 3.16,2.26 6.32,4.07 9.26,4.97l-64.8 0c2.94,-1.13 6.09,-2.71 9.26,-4.97 3.16,-2.26 5.65,-4.74 7.22,-7.45 1.81,-2.49 2.71,-5.42 2.71,-8.35l0 -184.23c0,-2.94 -0.9,-5.87 -2.71,-8.58 -1.58,-2.48 -4.06,-4.96 -7.22,-7.22 -3.16,-2.26 -6.32,-4.07 -9.26,-4.97l64.8 0c-2.94,0.9 -6.1,2.71 -9.26,4.97 -3.16,2.26 -5.42,4.74 -7.22,7.22 -1.81,2.71 -2.71,5.65 -2.71,8.58zm20.32 205m164.36 -225.77l64.8 0c-2.93,0.9 -6.09,2.71 -9.03,4.97 -3.16,2.26 -5.64,4.74 -7.45,7.22 -1.81,2.71 -2.71,5.65 -2.71,8.58l0 205 0 -0.23 0 0.23 -164.36 -170.23 0 149.46c0,2.94 0.9,5.87 2.71,8.35 1.81,2.71 4.06,5.19 7.22,7.45 3.16,2.26 6.32,3.84 9.26,4.97l-64.8 0c2.94,-1.13 6.1,-2.71 9.26,-4.97 3.16,-2.26 5.65,-4.74 7.23,-7.45 1.81,-2.49 2.71,-5.42 2.71,-8.35l0 -205 164.36 172.49 0 -151.72c0,-2.94 -0.9,-5.87 -2.71,-8.58 -1.58,-2.48 -4.06,-4.96 -7.22,-7.22 -3.16,-2.26 -6.09,-4.07 -9.26,-4.97zm66.83 225.77m169.1 -23.93l0 -69.76c0.68,-1.58 0,-3.61 -1.58,-5.87 -3.16,-4.29 -10.38,-7.9 -21.45,-10.61l72.25 0c-10.84,2.71 -18.06,6.32 -21.22,10.61 -1.58,2.26 -2.26,4.29 -1.58,5.87l0 78.12c-3.39,2.49 -8.58,5.2 -15.81,7.68 -14.9,5.19 -32.51,7.9 -53.05,7.9 -37.03,0 -66.61,-9.03 -88.73,-26.87 -12.64,-10.16 -21.9,-22.8 -28,-37.93 -6.09,-14.9 -9.25,-32.51 -9.71,-52.6 -0.23,-9.03 0.9,-18.29 2.71,-27.09 2.03,-9.03 5.42,-18.06 10.16,-27.09 4.74,-9.03 10.61,-16.93 17.38,-23.93 6.77,-7 14.67,-12.64 23.48,-17.39 8.81,-4.52 18.74,-8.13 29.58,-10.16 11.06,-2.26 23.03,-3.16 35.9,-2.71 21,0.68 37.93,2.03 51.03,4.06 13.09,2.03 22.35,3.84 27.54,5.42l-7.68 49.9c-1.58,-8.13 -5.42,-16.48 -11.97,-24.61 -12.87,-16.71 -31.83,-24.84 -56.44,-24.84 -30.03,0 -53.51,8.58 -70.89,26.19 -17.39,17.39 -26.19,41.77 -26.19,72.7 0,29.35 11.96,54.41 35.9,75.18 11.29,9.48 23.03,16.71 35.22,21.22 12.19,4.52 24.84,7 38.38,7.23 7.45,0 14.22,-0.68 19.87,-2.26 5.65,-1.81 10.84,-4.51 14.9,-8.35zm53.73 23.93m16.48 -47.64c4.51,0 8.35,1.81 11.74,4.97 3.16,3.16 4.74,7.23 4.74,11.74 0,4.51 -1.58,8.58 -4.74,11.74 -3.39,3.16 -7.22,4.74 -11.74,4.74 -4.51,0 -8.35,-1.58 -11.74,-4.74 -3.16,-3.16 -4.74,-7.22 -4.74,-11.74 0,-4.51 1.58,-8.58 4.74,-11.74 3.39,-3.16 7.23,-4.97 11.74,-4.97z"/>
   <path class="fil0" d="M-0 734.22m277.06 -73.99l8.47 48.57c-4.89,4.24 -13.36,8.48 -24.45,12.71 -22.49,8.47 -48.57,12.71 -78.22,12.71 -1.63,0 -3.59,0 -5.22,0 -1.63,0 -3.59,0 -5.21,-0.33 -51.17,-1.63 -91.59,-15.64 -121.25,-41.4 -16.95,-14.67 -29.66,-32.92 -37.81,-54.11 -8.15,-21.19 -12.71,-45.63 -13.04,-73.66 -0.33,-13.04 0.98,-26.4 3.91,-39.11 2.93,-13.04 7.82,-26.08 14.67,-39.11 6.84,-13.04 15.32,-24.45 25.1,-34.55 9.78,-10.1 21.19,-18.25 33.9,-25.1 12.71,-6.52 27.05,-11.74 42.7,-14.67 15.64,-3.26 32.92,-4.56 51.82,-3.91 30.31,0.98 54.76,2.93 73.66,5.87 18.91,2.93 31.94,5.54 39.44,7.82l-10.76 72.03c-2.28,-11.73 -8.15,-23.79 -17.28,-35.53 -18.9,-23.79 -45.96,-35.85 -81.49,-35.85 -43.02,0 -77.25,12.71 -102.35,37.81 -25.1,25.1 -37.81,60.3 -37.81,104.96 0,42.37 17.27,78.55 51.82,108.54 16.3,13.69 32.92,24.12 50.52,30.96 17.6,6.84 36.18,10.11 55.41,10.11 3.91,0 8.15,-0.65 12.71,-2.28 4.56,-1.3 9.78,-3.26 14.99,-5.87 21.84,-9.78 40.09,-25.1 55.74,-46.61zm10.1 73.99m65.84 -295.96l0 265.97c0,4.24 1.3,8.47 3.91,12.06 2.61,3.91 5.87,7.5 10.43,10.76 4.56,3.26 9.13,5.87 13.36,7.17l-93.55 0c4.24,-1.63 8.8,-3.91 13.36,-7.17 4.56,-3.26 8.15,-6.84 10.43,-10.76 2.61,-3.59 3.91,-7.82 3.91,-12.06l0 -265.97c0,-4.24 -1.3,-8.47 -3.91,-12.39 -2.28,-3.59 -5.87,-7.17 -10.43,-10.43 -4.56,-3.26 -9.13,-5.87 -13.36,-7.17l93.55 0c-4.24,1.3 -8.8,3.91 -13.36,7.17 -4.56,3.26 -7.82,6.84 -10.43,10.43 -2.61,3.91 -3.91,8.15 -3.91,12.39zm30.31 295.96m1.96 -23.47c-1.96,-15.64 -0.33,-34.87 4.89,-57.69 0,21.19 7.82,36.83 22.82,47.91 11.73,8.15 25.1,12.39 39.77,12.39 13.69,0 27.05,-4.56 40.42,-13.69 15.64,-10.1 23.47,-22.81 23.47,-37.81 0,-14.67 -6.19,-29.99 -18.9,-45.63 -3.91,-5.21 -9.78,-11.41 -17.28,-18.9 -7.5,-7.5 -16.95,-15.97 -28.36,-26.08 -10.76,-9.78 -19.88,-18.25 -27.38,-25.75 -7.5,-7.5 -13.04,-14.01 -17.27,-19.23 -12.06,-15.97 -17.93,-31.94 -17.93,-47.91 0,-18.91 7.5,-35.2 22.82,-48.57 16.3,-14.34 37.48,-21.51 63.88,-21.51 22.49,0 39.44,1.96 51.18,6.19 5.87,1.96 9.45,4.24 10.43,6.19l-9.78 56.39c0,-11.41 -3.91,-22.17 -11.74,-32.92 -9.78,-13.69 -22.81,-20.21 -39.11,-20.21 -17.93,0 -31.29,3.59 -40.74,10.76 -9.13,7.17 -13.69,16.95 -13.69,29.99 0,21.19 18.58,46.94 55.74,77.58 22.49,18.58 37.81,32.27 45.31,41.07 15.97,18.58 24.12,37.48 24.12,56.72 0,30.31 -13.69,54.43 -41.07,72.68 -21.84,14.34 -44.98,21.51 -69.1,21.51 -15.64,0 -28.68,-3.91 -40.09,-11.73 -5.87,-3.91 -10.1,-7.82 -12.39,-11.74zm165.91 23.47m277.06 -73.99l8.47 48.57c-4.89,4.24 -13.36,8.48 -24.45,12.71 -22.49,8.47 -48.57,12.71 -78.22,12.71 -1.63,0 -3.59,0 -5.22,0 -1.63,0 -3.59,0 -5.21,-0.33 -51.17,-1.63 -91.59,-15.64 -121.25,-41.4 -16.95,-14.67 -29.66,-32.92 -37.81,-54.11 -8.15,-21.19 -12.71,-45.63 -13.04,-73.66 -0.33,-13.04 0.98,-26.4 3.91,-39.11 2.93,-13.04 7.82,-26.08 14.67,-39.11 6.84,-13.04 15.32,-24.45 25.1,-34.55 9.78,-10.1 21.19,-18.25 33.9,-25.1 12.71,-6.52 27.05,-11.74 42.7,-14.67 15.64,-3.26 32.92,-4.56 51.82,-3.91 30.31,0.98 54.76,2.93 73.66,5.87 18.91,2.93 31.94,5.54 39.44,7.82l-10.76 72.03c-2.28,-11.73 -8.15,-23.79 -17.28,-35.53 -18.9,-23.79 -45.96,-35.85 -81.49,-35.85 -43.02,0 -77.25,12.71 -102.35,37.81 -25.1,25.1 -37.81,60.3 -37.81,104.96 0,42.37 17.27,78.55 51.82,108.54 16.3,13.69 32.92,24.12 50.52,30.96 17.6,6.84 36.18,10.11 55.41,10.11 3.91,0 8.15,-0.65 12.71,-2.28 4.56,-1.3 9.78,-3.26 14.99,-5.87 21.84,-9.78 40.09,-25.1 55.74,-46.61zm10.1 73.99m191.98 -303.13l0 284.23c24.77,-5.22 44.65,-16.3 60.3,-33.57 21.84,-24.12 32.92,-59 32.92,-103.98 0,-45.31 -11.08,-81.16 -32.92,-107.56 -15.97,-18.58 -35.85,-31.62 -60.3,-39.11zm-118.64 36.51c-21.84,25.42 -32.6,59.97 -32.6,103.65 0,43.68 10.76,78.55 32.6,103.98 15.32,17.93 35.2,30.64 59.65,37.48l0 -282.27c-24.44,6.84 -44.33,19.23 -59.65,37.16zm96.15 -41.4l0 292.05c3.91,-0.33 8.15,-0.65 12.71,-0.98l0 -289.11c-1.96,-0.33 -4.24,-0.98 -6.19,-1.3 -2.28,-0.33 -4.24,-0.65 -6.52,-0.65zm-15.97 291.07l0 -291.07c-1.63,0.33 -3.59,0.33 -5.21,0.65 -1.96,0.33 -3.59,0.65 -5.54,0.98l0 287.49c3.59,0.98 7.17,1.63 10.76,1.96zm-69.1 -291.4c14.01,-6.84 28.03,-11.41 41.72,-14.01 14.01,-2.61 28.03,-3.91 42.05,-3.59 18.91,0.65 37.16,4.56 54.43,12.06 17.6,7.17 34.22,18.58 50.2,34.22 35.53,33.9 53.13,74.97 53.13,123.21 0,47.26 -18.25,86.38 -54.43,116.69 -31.62,26.4 -66.17,39.77 -103.33,39.77 -40.42,0 -76.27,-11.41 -108.22,-34.55 -40.09,-29.01 -59.97,-70.08 -59.97,-122.88 0,-74.32 28.03,-124.51 84.42,-150.91zm334.75 308.35m1.96 -23.47c-1.96,-15.64 -0.33,-34.87 4.89,-57.69 0,21.19 7.82,36.83 22.82,47.91 11.73,8.15 25.1,12.39 39.77,12.39 13.69,0 27.05,-4.56 40.42,-13.69 15.64,-10.1 23.47,-22.81 23.47,-37.81 0,-14.67 -6.19,-29.99 -18.9,-45.63 -3.91,-5.21 -9.78,-11.41 -17.28,-18.9 -7.5,-7.5 -16.95,-15.97 -28.36,-26.08 -10.76,-9.78 -19.88,-18.25 -27.38,-25.75 -7.5,-7.5 -13.04,-14.01 -17.27,-19.23 -12.06,-15.97 -17.93,-31.94 -17.93,-47.91 0,-18.91 7.5,-35.2 22.82,-48.57 16.3,-14.34 37.48,-21.51 63.88,-21.51 22.49,0 39.44,1.96 51.18,6.19 5.87,1.96 9.45,4.24 10.43,6.19l-9.78 56.39c0,-11.41 -3.91,-22.17 -11.74,-32.92 -9.78,-13.69 -22.81,-20.21 -39.11,-20.21 -17.93,0 -31.29,3.59 -40.74,10.76 -9.13,7.17 -13.69,16.95 -13.69,29.99 0,21.19 18.58,46.94 55.74,77.58 22.49,18.58 37.81,32.27 45.31,41.07 15.97,18.58 24.12,37.48 24.12,56.72 0,30.31 -13.69,54.43 -41.07,72.68 -21.84,14.34 -44.98,21.51 -69.1,21.51 -15.64,0 -28.68,-3.91 -40.09,-11.73 -5.87,-3.91 -10.1,-7.82 -12.39,-11.74zm164.6 23.47m0 -320.41l166.88 0 12.39 -5.54 -12.39 59.65c-0.33,-5.87 -2.28,-11.74 -5.21,-17.93 -5.87,-11.73 -15.64,-17.6 -28.68,-17.6l-61.93 0 0 121.9 68.12 0c6.52,0 12.71,-0.98 17.93,-2.93 5.54,-1.96 10.1,-4.57 14.34,-8.15l-7.82 63.89c0,-5.54 -1.96,-11.41 -5.54,-17.28 -6.84,-11.41 -18.58,-17.27 -34.88,-17.27l-52.15 0 0 120.93c3.59,4.56 8.47,9.13 14.99,13.69 13.04,9.13 27.05,13.69 42.05,13.69 15.32,0 29.34,-7.17 42.7,-21.51 6.52,-7.17 11.73,-14.34 15,-21.19l-6.52 56.06 -173.73 0c4.24,-1.63 8.8,-4.24 13.69,-7.5 9.45,-7.17 14.02,-15.32 14.02,-24.77 0,-14.99 0,-103.65 -0.33,-265.97 -4.89,-9.78 -15.97,-17.28 -32.92,-22.17zm189.05 320.41m277.06 -73.99l8.47 48.57c-4.89,4.24 -13.36,8.48 -24.45,12.71 -22.49,8.47 -48.57,12.71 -78.22,12.71 -1.63,0 -3.59,0 -5.22,0 -1.63,0 -3.59,0 -5.21,-0.33 -51.17,-1.63 -91.59,-15.64 -121.25,-41.4 -16.95,-14.67 -29.66,-32.92 -37.81,-54.11 -8.15,-21.19 -12.71,-45.63 -13.04,-73.66 -0.33,-13.04 0.98,-26.4 3.91,-39.11 2.93,-13.04 7.82,-26.08 14.67,-39.11 6.84,-13.04 15.32,-24.45 25.1,-34.55 9.78,-10.1 21.19,-18.25 33.9,-25.1 12.71,-6.52 27.05,-11.74 42.7,-14.67 15.64,-3.26 32.92,-4.56 51.82,-3.91 30.31,0.98 54.76,2.93 73.66,5.87 18.91,2.93 31.94,5.54 39.44,7.82l-10.76 72.03c-2.28,-11.73 -8.15,-23.79 -17.28,-35.53 -18.9,-23.79 -45.96,-35.85 -81.49,-35.85 -43.02,0 -77.25,12.71 -102.35,37.81 -25.1,25.1 -37.81,60.3 -37.81,104.96 0,42.37 17.27,78.55 51.82,108.54 16.3,13.69 32.92,24.12 50.52,30.96 17.6,6.84 36.18,10.11 55.41,10.11 3.91,0 8.15,-0.65 12.71,-2.28 4.56,-1.3 9.78,-3.26 14.99,-5.87 21.84,-9.78 40.09,-25.1 55.74,-46.61zm10.1 73.99m232.08 -325.95l92.57 0c-4.24,1.3 -8.8,3.59 -13.04,6.84 -8.8,6.19 -13.37,13.69 -14.34,22.49l0 144.39c0,46.94 -14.01,84.75 -42.05,113.43 -25.1,25.75 -54.76,38.79 -88.98,38.79 -37.16,0 -68.45,-11.08 -94.2,-33.57 -31.62,-27.38 -47.26,-67.47 -47.26,-119.95l0 -144.39c-1.63,-9.45 -6.2,-17.28 -13.69,-22.82 -3.91,-2.61 -7.5,-4.24 -11.08,-5.21l92.57 0c-4.24,1.3 -8.47,3.59 -13.04,6.84 -8.8,6.84 -13.69,14.34 -14.34,22.82l-0.33 98.11 0 39.44c-0.33,39.44 5.21,70.73 16.3,94.2 11.08,23.47 28.03,38.14 50.85,43.68l9.13 2.61c3.91,0.98 7.5,1.63 10.76,1.63l15.32 0.98c2.61,0 4.89,-0.33 6.84,-0.33 2.28,-0.33 4.24,-0.33 5.87,-0.65l9.45 -1.63c10.43,-1.96 19.56,-5.54 27.38,-11.08 7.82,-5.87 14.67,-13.04 19.88,-21.51 14.01,-22.17 20.86,-56.06 20.86,-101.37l0 -138.2c0,-12.39 -4.24,-22.17 -12.71,-29.01 -3.91,-3.26 -8.15,-5.54 -12.71,-6.52zm94.2 325.95m65.19 -162l54.43 0c3.59,0 7.5,-0.65 11.08,-1.96 3.59,-1.63 7.5,-3.91 11.08,-6.52 14.67,-10.76 22.17,-29.01 22.17,-54.76 0,-28.03 -7.5,-50.2 -22.82,-66.49 -12.39,-13.04 -26.07,-19.56 -41.4,-19.56 -15.32,0 -24.12,0.65 -26.07,1.3 -4.89,2.28 -7.17,9.13 -7.17,20.54 0,8.47 0,23.14 -0.33,44.33 -0.33,21.51 -0.65,49.22 -0.98,83.12zm87.35 11.08c5.54,4.89 11.41,11.41 17.6,18.91 6.19,7.82 13.04,16.62 20.21,27.38 17.93,26.73 34.22,47.26 48.24,60.95 24.77,24.12 47.59,33.9 68.12,29.66 -0.98,2.28 -3.91,4.56 -8.47,6.84 -9.13,4.89 -22.81,7.17 -41.07,7.17 -18.25,0 -40.42,-15.64 -66.49,-46.94 -6.52,-8.15 -12.71,-15.97 -18.25,-23.47 -5.54,-7.82 -10.76,-15.64 -15.32,-23.79 -1.96,-3.59 -4.89,-7.5 -8.47,-11.08 -3.26,-3.91 -7.5,-7.5 -12.39,-11.41 -19.56,-14.99 -43.02,-22.49 -71.05,-22.49l0 109.19c0,4.56 1.3,8.47 3.91,12.39 2.61,3.91 5.87,7.17 10.43,10.43 4.56,3.59 8.8,5.87 13.04,7.17l-92.57 0c4.24,-1.3 8.47,-3.59 13.04,-7.17 4.56,-3.26 8.15,-6.52 10.43,-10.43 2.61,-3.91 3.91,-7.82 3.91,-12.39l0 -264.02c0,-4.56 -1.3,-8.47 -3.91,-12.39 -2.28,-3.59 -5.87,-7.17 -10.43,-10.43 -4.56,-3.26 -8.8,-5.54 -13.04,-7.17l65.19 0c22.81,-3.59 45.63,-3.26 68.45,1.63 45.63,9.45 68.45,34.88 68.45,76.92 0.65,7.5 -0.65,17.27 -4.56,29.01 -7.5,23.47 -22.49,45.31 -44.98,65.51zm155.48 150.91m65.84 -295.96l0 265.97c0,4.24 1.3,8.47 3.91,12.06 2.61,3.91 5.87,7.5 10.43,10.76 4.56,3.26 9.13,5.87 13.36,7.17l-93.55 0c4.24,-1.63 8.8,-3.91 13.36,-7.17 4.56,-3.26 8.15,-6.84 10.43,-10.76 2.61,-3.59 3.91,-7.82 3.91,-12.06l0 -265.97c0,-4.24 -1.3,-8.47 -3.91,-12.39 -2.28,-3.59 -5.87,-7.17 -10.43,-10.43 -4.56,-3.26 -9.13,-5.87 -13.36,-7.17l93.55 0c-4.24,1.3 -8.8,3.91 -13.36,7.17 -4.56,3.26 -7.82,6.84 -10.43,10.43 -2.61,3.91 -3.91,8.15 -3.91,12.39zm29.33 295.96m242.5 -320.41l12.06 -5.54 -12.06 59.65c-0.65,-5.87 -2.28,-11.74 -5.54,-17.93 -5.87,-11.73 -15.65,-17.6 -28.68,-17.6l-61.6 0 0 3.59 -0.33 168.84 0 99.41c0,4.24 1.3,8.47 3.91,12.06 2.61,3.91 6.19,7.5 10.76,10.76 4.24,3.26 8.8,5.54 13.04,7.17l-93.55 0c4.24,-1.3 8.47,-3.91 13.36,-7.17 8.8,-6.52 13.37,-14.02 14.34,-22.82l0 -99.41 -0.33 -168.84 0 -3.59 -61.61 0c-13.04,0 -22.81,5.87 -29.01,17.6 -1.3,2.93 -2.61,5.87 -3.26,8.8 -0.98,2.93 -1.63,5.87 -1.63,9.13l-12.39 -59.65 12.39 5.54 230.12 0zm13.69 320.41m168.19 -325.95l94.2 0c-1.63,0.33 -3.59,0.98 -5.21,1.96 -1.96,0.98 -3.91,1.96 -5.87,3.59 -7.82,5.21 -12.39,13.04 -14.01,22.82l-87.03 138.53 0 129.07c0,4.24 1.3,8.47 3.91,12.06 2.61,3.91 6.19,7.5 10.76,10.76 4.24,3.26 8.8,5.54 13.04,7.17l-93.55 0c4.24,-1.63 8.8,-3.91 13.36,-7.17 4.57,-3.26 8.15,-6.84 10.43,-10.76 2.61,-3.59 3.91,-7.82 3.91,-12.06l0 -127.77 -87.03 -139.83c-1.63,-9.78 -6.52,-17.6 -14.02,-22.82 -4.24,-2.93 -7.82,-4.89 -11.08,-5.54l94.2 0c-4.24,1.3 -8.8,3.91 -13.36,7.17 -8.8,6.52 -13.69,14.02 -14.67,22.82l65.19 110.17 64.86 -110.17c-0.65,-8.47 -5.54,-16.3 -14.67,-22.82 -4.24,-3.26 -8.8,-5.87 -13.36,-7.17zm187.74 325.95m244.13 -34.55l0 -100.72c0.98,-2.28 0,-5.21 -2.28,-8.48 -4.56,-6.19 -14.99,-11.41 -30.97,-15.32l104.3 0c-15.65,3.91 -26.08,9.13 -30.64,15.32 -2.28,3.26 -3.26,6.2 -2.28,8.48l0 112.78c-4.89,3.59 -12.39,7.5 -22.82,11.08 -21.51,7.5 -46.94,11.41 -76.6,11.41 -53.46,0 -96.16,-13.04 -128.1,-38.79 -18.25,-14.67 -31.61,-32.92 -40.42,-54.76 -8.8,-21.51 -13.36,-46.94 -14.01,-75.95 -0.33,-13.04 1.3,-26.4 3.91,-39.11 2.93,-13.04 7.82,-26.08 14.67,-39.11 6.84,-13.04 15.32,-24.45 25.1,-34.55 9.78,-10.1 21.19,-18.25 33.9,-25.1 12.71,-6.52 27.05,-11.74 42.7,-14.67 15.97,-3.26 33.25,-4.56 51.82,-3.91 30.31,0.98 54.76,2.93 73.66,5.87 18.91,2.93 32.27,5.54 39.77,7.82l-11.08 72.03c-2.28,-11.73 -7.82,-23.79 -17.28,-35.53 -18.58,-24.12 -45.96,-35.85 -81.49,-35.85 -43.35,0 -77.25,12.39 -102.35,37.81 -25.1,25.1 -37.81,60.3 -37.81,104.96 0,42.37 17.27,78.55 51.82,108.54 16.3,13.69 33.25,24.12 50.85,30.64 17.6,6.52 35.85,10.11 55.41,10.43 10.76,0 20.53,-0.98 28.68,-3.26 8.15,-2.61 15.65,-6.52 21.51,-12.06zm73.01 34.55m109.84 -143.74l79.86 0.33 -39.44 -109.84 -40.42 109.52zm204.69 143.74l-103 0c4.89,-7.17 13.04,-12.39 25.1,-15.64l-42.05 -107.89 -89.96 0 -34.22 102.67c0,6.52 4.24,11.74 12.39,16.3 4.56,1.96 8.47,3.59 12.39,4.56l-95.18 0c13.69,-1.63 24.77,-7.17 32.92,-16.62 1.96,-2.28 3.59,-4.57 4.89,-6.85 1.3,-2.28 2.28,-4.24 3.26,-6.52l111.8 -295.96c37.81,92.24 67.14,163.3 88.01,212.84 20.86,49.87 33.25,78.23 36.83,85.4 4.56,9.13 12.06,16.62 22.49,22.17 2.93,1.3 5.21,2.61 7.5,3.26 2.61,0.98 4.56,1.63 6.84,2.28zm1.96 0m196.22 -6.52l-0.33 0.33 0 -0.33 0 0 -1.3 -0.98 -107.24 -202.09 -22.49 165.58 0 10.43c0.65,8.8 5.54,16.3 14.34,22.82 4.24,3.26 8.8,5.54 13.04,7.17l-92.24 0c1.96,-0.98 4.24,-1.96 6.19,-2.93 2.28,-1.3 4.56,-2.61 6.84,-4.24 4.24,-3.26 7.82,-6.84 10.11,-10.76 2.28,-3.59 3.59,-7.5 4.24,-12.06l37.16 -292.37 131.36 265 134.94 -261.09 48.57 292.37c0.65,8.47 5.54,15.97 14.34,22.49 4.56,3.59 9.13,5.87 13.04,7.17l-92.24 0c3.91,-1.3 8.47,-3.59 13.04,-7.17 4.56,-3.26 7.82,-6.52 10.43,-10.43 2.61,-3.59 3.91,-7.82 3.91,-12.06l0 -10.76 -37.48 -161.67 -108.21 195.57zm212.52 6.52m0 -320.41l166.88 0 12.39 -5.54 -12.39 59.65c-0.33,-5.87 -2.28,-11.74 -5.21,-17.93 -5.87,-11.73 -15.64,-17.6 -28.68,-17.6l-61.93 0 0 121.9 68.12 0c6.52,0 12.71,-0.98 17.93,-2.93 5.54,-1.96 10.1,-4.57 14.34,-8.15l-7.82 63.89c0,-5.54 -1.96,-11.41 -5.54,-17.28 -6.84,-11.41 -18.58,-17.27 -34.88,-17.27l-52.15 0 0 120.93c3.59,4.56 8.47,9.13 14.99,13.69 13.04,9.13 27.05,13.69 42.05,13.69 15.32,0 29.34,-7.17 42.7,-21.51 6.52,-7.17 11.73,-14.34 15,-21.19l-6.52 56.06 -173.73 0c4.24,-1.63 8.8,-4.24 13.69,-7.5 9.45,-7.17 14.02,-15.32 14.02,-24.77 0,-14.99 0,-103.65 -0.33,-265.97 -4.89,-9.78 -15.97,-17.28 -32.92,-22.17zm188.4 320.41m1.96 -23.47c-1.96,-15.64 -0.33,-34.87 4.89,-57.69 0,21.19 7.82,36.83 22.82,47.91 11.73,8.15 25.1,12.39 39.77,12.39 13.69,0 27.05,-4.56 40.42,-13.69 15.64,-10.1 23.47,-22.81 23.47,-37.81 0,-14.67 -6.19,-29.99 -18.9,-45.63 -3.91,-5.21 -9.78,-11.41 -17.28,-18.9 -7.5,-7.5 -16.95,-15.97 -28.36,-26.08 -10.76,-9.78 -19.88,-18.25 -27.38,-25.75 -7.5,-7.5 -13.04,-14.01 -17.27,-19.23 -12.06,-15.97 -17.93,-31.94 -17.93,-47.91 0,-18.91 7.5,-35.2 22.82,-48.57 16.3,-14.34 37.48,-21.51 63.88,-21.51 22.49,0 39.44,1.96 51.18,6.19 5.87,1.96 9.45,4.24 10.43,6.19l-9.78 56.39c0,-11.41 -3.91,-22.17 -11.74,-32.92 -9.78,-13.69 -22.81,-20.21 -39.11,-20.21 -17.93,0 -31.29,3.59 -40.74,10.76 -9.13,7.17 -13.69,16.95 -13.69,29.99 0,21.19 18.58,46.94 55.74,77.58 22.49,18.58 37.81,32.27 45.31,41.07 15.97,18.58 24.12,37.48 24.12,56.72 0,30.31 -13.69,54.43 -41.07,72.68 -21.84,14.34 -44.98,21.51 -69.1,21.51 -15.64,0 -28.68,-3.91 -40.09,-11.73 -5.87,-3.91 -10.1,-7.82 -12.39,-11.74zm169.17 23.47m23.8 -68.78c6.52,0 12.06,2.61 16.95,7.17 4.56,4.57 6.84,10.43 6.84,16.95 0,6.52 -2.28,12.39 -6.84,16.95 -4.89,4.56 -10.43,6.84 -16.95,6.84 -6.52,0 -12.06,-2.28 -16.95,-6.84 -4.56,-4.56 -6.84,-10.43 -6.84,-16.95 0,-6.52 2.28,-12.39 6.84,-16.95 4.89,-4.56 10.43,-7.17 16.95,-7.17z"/>
  </g>
 </g>
</svg>
