<?xml version="1.0" encoding="UTF-8"?>
<!DOCTYPE svg PUBLIC "-//W3C//DTD SVG 1.1//EN" "http://www.w3.org/Graphics/SVG/1.1/DTD/svg11.dtd">
<!-- Creator: CorelDRAW 2019 (64-Bit) -->
<svg xmlns="http://www.w3.org/2000/svg" xml:space="preserve" width="29.5135mm" height="15.6273mm" version="1.1" style="shape-rendering:geometricPrecision; text-rendering:geometricPrecision; image-rendering:optimizeQuality; fill-rule:evenodd; clip-rule:evenodd"
viewBox="0 0 110.82 58.68"
 xmlns:xlink="http://www.w3.org/1999/xlink">
 <defs>
  <style type="text/css">
   <![CDATA[
    .fil0 {fill:#FEFEFE;fill-rule:nonzero}
   ]]>
  </style>
 </defs>
 <g id="Слой_x0020_1">
  <metadata id="CorelCorpID_0Corel-Layer"/>
  <g id="_1073776112">
   <path class="fil0" d="M17.13 58.68m13.9 -3.71l0.43 2.44c-0.25,0.21 -0.67,0.43 -1.23,0.64 -1.13,0.43 -2.44,0.64 -3.92,0.64 -0.08,0 -0.18,0 -0.26,0 -0.08,0 -0.18,0 -0.26,-0.02 -2.57,-0.08 -4.59,-0.78 -6.08,-2.08 -0.85,-0.74 -1.49,-1.65 -1.9,-2.71 -0.41,-1.06 -0.64,-2.29 -0.65,-3.69 -0.02,-0.65 0.05,-1.32 0.2,-1.96 0.15,-0.65 0.39,-1.31 0.74,-1.96 0.34,-0.65 0.77,-1.23 1.26,-1.73 0.49,-0.51 1.06,-0.92 1.7,-1.26 0.64,-0.33 1.36,-0.59 2.14,-0.74 0.78,-0.16 1.65,-0.23 2.6,-0.2 1.52,0.05 2.75,0.15 3.69,0.29 0.95,0.15 1.6,0.28 1.98,0.39l-0.54 3.61c-0.11,-0.59 -0.41,-1.19 -0.87,-1.78 -0.95,-1.19 -2.31,-1.8 -4.09,-1.8 -2.16,0 -3.87,0.64 -5.13,1.9 -1.26,1.26 -1.9,3.02 -1.9,5.26 0,2.13 0.87,3.94 2.6,5.44 0.82,0.69 1.65,1.21 2.53,1.55 0.88,0.34 1.81,0.51 2.78,0.51 0.2,0 0.41,-0.03 0.64,-0.11 0.23,-0.07 0.49,-0.16 0.75,-0.29 1.1,-0.49 2.01,-1.26 2.8,-2.34zm5.05 3.71m3.3 -14.84l0 13.34c0,0.21 0.07,0.43 0.2,0.6 0.13,0.2 0.29,0.38 0.52,0.54 0.23,0.16 0.46,0.29 0.67,0.36l-4.69 0c0.21,-0.08 0.44,-0.2 0.67,-0.36 0.23,-0.16 0.41,-0.34 0.52,-0.54 0.13,-0.18 0.2,-0.39 0.2,-0.6l0 -13.34c0,-0.21 -0.07,-0.43 -0.2,-0.62 -0.11,-0.18 -0.29,-0.36 -0.52,-0.52 -0.23,-0.16 -0.46,-0.29 -0.67,-0.36l4.69 0c-0.21,0.07 -0.44,0.2 -0.67,0.36 -0.23,0.16 -0.39,0.34 -0.52,0.52 -0.13,0.2 -0.2,0.41 -0.2,0.62zm6.07 14.84m0.1 -1.18c-0.1,-0.78 -0.02,-1.75 0.25,-2.89 0,1.06 0.39,1.85 1.14,2.4 0.59,0.41 1.26,0.62 1.99,0.62 0.69,0 1.36,-0.23 2.03,-0.69 0.78,-0.51 1.18,-1.14 1.18,-1.9 0,-0.74 -0.31,-1.5 -0.95,-2.29 -0.2,-0.26 -0.49,-0.57 -0.87,-0.95 -0.38,-0.38 -0.85,-0.8 -1.42,-1.31 -0.54,-0.49 -1,-0.92 -1.37,-1.29 -0.38,-0.38 -0.65,-0.7 -0.87,-0.96 -0.6,-0.8 -0.9,-1.6 -0.9,-2.4 0,-0.95 0.38,-1.77 1.14,-2.44 0.82,-0.72 1.88,-1.08 3.2,-1.08 1.13,0 1.98,0.1 2.57,0.31 0.29,0.1 0.47,0.21 0.52,0.31l-0.49 2.83c0,-0.57 -0.2,-1.11 -0.59,-1.65 -0.49,-0.69 -1.14,-1.01 -1.96,-1.01 -0.9,0 -1.57,0.18 -2.04,0.54 -0.46,0.36 -0.69,0.85 -0.69,1.5 0,1.06 0.93,2.35 2.8,3.89 1.13,0.93 1.9,1.62 2.27,2.06 0.8,0.93 1.21,1.88 1.21,2.84 0,1.52 -0.69,2.73 -2.06,3.65 -1.1,0.72 -2.26,1.08 -3.47,1.08 -0.78,0 -1.44,-0.2 -2.01,-0.59 -0.29,-0.2 -0.51,-0.39 -0.62,-0.59zm12.87 1.18m13.9 -3.71l0.43 2.44c-0.25,0.21 -0.67,0.43 -1.23,0.64 -1.13,0.43 -2.44,0.64 -3.92,0.64 -0.08,0 -0.18,0 -0.26,0 -0.08,0 -0.18,0 -0.26,-0.02 -2.57,-0.08 -4.59,-0.78 -6.08,-2.08 -0.85,-0.74 -1.49,-1.65 -1.9,-2.71 -0.41,-1.06 -0.64,-2.29 -0.65,-3.69 -0.02,-0.65 0.05,-1.32 0.2,-1.96 0.15,-0.65 0.39,-1.31 0.74,-1.96 0.34,-0.65 0.77,-1.23 1.26,-1.73 0.49,-0.51 1.06,-0.92 1.7,-1.26 0.64,-0.33 1.36,-0.59 2.14,-0.74 0.78,-0.16 1.65,-0.23 2.6,-0.2 1.52,0.05 2.75,0.15 3.69,0.29 0.95,0.15 1.6,0.28 1.98,0.39l-0.54 3.61c-0.11,-0.59 -0.41,-1.19 -0.87,-1.78 -0.95,-1.19 -2.31,-1.8 -4.09,-1.8 -2.16,0 -3.87,0.64 -5.13,1.9 -1.26,1.26 -1.9,3.02 -1.9,5.26 0,2.13 0.87,3.94 2.6,5.44 0.82,0.69 1.65,1.21 2.53,1.55 0.88,0.34 1.81,0.51 2.78,0.51 0.2,0 0.41,-0.03 0.64,-0.11 0.23,-0.07 0.49,-0.16 0.75,-0.29 1.1,-0.49 2.01,-1.26 2.8,-2.34zm5.05 3.71m9.63 -15.2l0 14.26c1.24,-0.26 2.24,-0.82 3.02,-1.68 1.1,-1.21 1.65,-2.96 1.65,-5.22 0,-2.27 -0.56,-4.07 -1.65,-5.4 -0.8,-0.93 -1.8,-1.59 -3.02,-1.96zm-5.95 1.83c-1.1,1.28 -1.63,3.01 -1.63,5.2 0,2.19 0.54,3.94 1.63,5.22 0.77,0.9 1.77,1.54 2.99,1.88l0 -14.16c-1.23,0.34 -2.22,0.96 -2.99,1.86zm4.82 -2.08l0 14.65c0.2,-0.02 0.41,-0.03 0.64,-0.05l0 -14.5c-0.1,-0.02 -0.21,-0.05 -0.31,-0.07 -0.11,-0.02 -0.21,-0.03 -0.33,-0.03zm-0.8 14.6l0 -14.6c-0.08,0.02 -0.18,0.02 -0.26,0.03 -0.1,0.02 -0.18,0.03 -0.28,0.05l0 14.42c0.18,0.05 0.36,0.08 0.54,0.1zm-3.47 -14.62c0.7,-0.34 1.41,-0.57 2.09,-0.7 0.7,-0.13 1.41,-0.2 2.11,-0.18 0.95,0.03 1.86,0.23 2.73,0.6 0.88,0.36 1.72,0.93 2.52,1.72 1.78,1.7 2.66,3.76 2.66,6.18 0,2.37 -0.92,4.33 -2.73,5.85 -1.59,1.32 -3.32,1.99 -5.18,1.99 -2.03,0 -3.83,-0.57 -5.43,-1.73 -2.01,-1.46 -3.01,-3.51 -3.01,-6.16 0,-3.73 1.41,-6.25 4.23,-7.57z"/>
   <path class="fil0" d="M4.81 23.18c0,1.33 -1.08,2.41 -2.4,2.41 -1.32,0 -2.41,-1.08 -2.41,-2.41l0 -5.05c0,-1.33 1.09,-2.41 2.41,-2.41 1.33,0 2.4,1.08 2.4,2.41l0 5.05zm13.26 -11.68c0,-1.33 -1.08,-2.41 -2.42,-2.41 -1.32,0 -2.41,1.08 -2.41,2.41l0 11.68c0,1.33 1.09,2.41 2.41,2.41 1.33,0 2.42,-1.08 2.42,-2.41l0 -11.68zm13.25 -9.08c0,-1.35 -1.08,-2.41 -2.42,-2.41 -1.33,0 -2.4,1.06 -2.4,2.41l0 25.57c0,1.33 1.07,2.41 2.4,2.41 1.34,0 2.42,-1.09 2.42,-2.41l0 -25.57zm13.25 9.08c0,-1.33 -1.08,-2.41 -2.4,-2.41 -1.33,0 -2.41,1.08 -2.41,2.41l0 11.68c0,1.33 1.09,2.41 2.41,2.41 1.33,0 2.4,-1.08 2.4,-2.41l0 -11.68zm13.24 6.63c0,-1.33 -1.07,-2.41 -2.39,-2.41 -1.33,0 -2.42,1.08 -2.42,2.41l0 5.05c0,1.33 1.09,2.41 2.42,2.41 1.32,0 2.39,-1.08 2.39,-2.41l0 -5.05zm13.26 -6.63c0,-1.33 -1.08,-2.41 -2.4,-2.41 -1.33,0 -2.4,1.08 -2.4,2.41l0 11.68c0,1.33 1.07,2.41 2.4,2.41 1.33,0 2.4,-1.08 2.4,-2.41l0 -11.68zm13.27 -9.08c0,-1.35 -1.08,-2.41 -2.41,-2.41 -1.31,0 -2.4,1.06 -2.4,2.41l0 25.57c0,1.33 1.09,2.41 2.4,2.41 1.33,0 2.41,-1.09 2.41,-2.41l0 -25.57zm13.26 9.08c0,-1.33 -1.08,-2.41 -2.44,-2.41 -1.33,0 -2.41,1.08 -2.41,2.41l0 11.68c0,1.33 1.07,2.41 2.41,2.41 1.36,0 2.44,-1.08 2.44,-2.41l0 -11.68zm13.23 6.63c0,-1.33 -1.07,-2.41 -2.4,-2.41 -1.33,0 -2.42,1.08 -2.42,2.41l0 5.05c0,1.33 1.09,2.41 2.42,2.41 1.33,0 2.4,-1.08 2.4,-2.41l0 -5.05z"/>
  </g>
 </g>
</svg>
